<svg width="312" height="288" viewBox="0 0 312 288" fill="none" xmlns="http://www.w3.org/2000/svg">
<path fill-rule="evenodd" clip-rule="evenodd" d="M7.89227 207.373C-19.8192 146.776 27.9918 26.1047 111.442 90.4919C194.893 154.879 251.602 106.478 284.759 131.023C317.916 155.568 322.281 239.8 219.586 275.154C116.891 310.508 35.6037 267.969 7.89227 207.373Z" fill="#DAFFCD"/>
<mask id="mask0_7_4" style="mask-type:luminance" maskUnits="userSpaceOnUse" x="32" y="17" width="280" height="270">
<path fill-rule="evenodd" clip-rule="evenodd" d="M43.7689 252.908C43.7689 252.908 103.843 296.832 178.337 284.003C252.831 271.174 280.814 237.893 280.814 237.893L261.791 147.075C261.791 147.075 303.671 113.891 309.444 78.3836C315.217 42.8758 311.684 18.6364 293.969 18.6364C276.254 18.6364 250.903 83.5532 237.479 81.08C224.055 78.6069 220.165 44.1832 204.964 53.5153C189.763 62.8473 195.167 11.6035 163.491 18.6364C131.815 25.6694 155.667 65.6415 125.053 53.5153C94.439 41.3891 69.8797 50.0618 61.6355 72.3406C53.3913 94.6194 23.6474 121.299 34.3898 160.719C45.1323 200.138 52.0669 196.882 50.9954 221.104C49.924 245.326 43.7689 252.908 43.7689 252.908Z" fill="white"/>
</mask>
<g mask="url(#mask0_7_4)">
<path fill-rule="evenodd" clip-rule="evenodd" d="M79.9523 160.719C79.9523 160.719 76.3321 166.666 75.2474 186.996C74.1626 207.326 72.2755 329.129 72.2755 329.129H89.8778C89.8778 329.129 97.198 249.874 98.3023 234.635C99.4066 219.396 105.788 161.79 105.788 161.79L79.9523 160.719Z" fill="#6FBF44"/>
<path fill-rule="evenodd" clip-rule="evenodd" d="M102.388 192.276L96.9279 186.057L88.4071 329.129H89.8779L102.388 192.276Z" fill="#2B8C6B"/>
<path d="M102.388 192.65L96.3123 184.769" stroke="white" stroke-width="1.3" stroke-linecap="round"/>
<path d="M81.4003 161.79C81.4003 161.79 76.3322 186.13 76.3322 210.312C76.3322 234.493 73.7623 328.863 73.7623 328.863" stroke="white" stroke-width="1.3" stroke-linecap="round"/>
<path fill-rule="evenodd" clip-rule="evenodd" d="M124.138 160.452C124.138 160.452 129.338 175.464 129.338 189.34C129.338 203.216 131.815 328.863 131.815 328.863H114.212C114.212 328.863 108.636 249.874 107.532 234.635C106.428 219.396 98.3024 161.523 98.3024 161.523L124.138 160.452Z" fill="#6FBF44"/>
<path d="M120.38 160.719C120.38 160.719 125.201 175.709 126.584 197.97C127.967 220.232 129.726 328.863 129.726 328.863" stroke="white" stroke-width="1.3" stroke-linecap="round"/>
<path fill-rule="evenodd" clip-rule="evenodd" d="M79.9523 161.79C79.9523 161.79 91.3187 163.462 103.404 163.462C115.489 163.462 123.582 161.79 123.582 161.79H79.9523Z" fill="white"/>
<path fill-rule="evenodd" clip-rule="evenodd" d="M92.5837 99.8469C92.5837 99.8469 75.3683 101.432 68.3639 107.481C61.3595 113.53 49.924 137.43 49.924 137.43L64.8312 149.595L72.4957 137.43C72.4957 137.43 74.1919 156.877 79.9523 161.79H123.582C123.582 161.79 130.301 155.289 132.446 137.43L158.831 134.993L157.111 112.103C157.111 112.103 130.426 99.4174 106.295 99.8952L92.5837 99.8469Z" fill="url(#paint0_linear_7_4)"/>
<path fill-rule="evenodd" clip-rule="evenodd" d="M53.3435 133.958C51.2375 132.601 49.5142 135.645 47.6079 138.745C45.7017 141.845 44.2548 141.941 47.3393 144.037C50.4239 146.132 61.1686 157.166 62.9268 155.52C64.6851 153.874 64.5342 149.099 65.9589 148.766C67.3836 148.434 69.5188 147.501 66.5268 144.006C63.5349 140.51 55.4496 135.315 53.3435 133.958Z" fill="#6FBF44"/>
<path fill-rule="evenodd" clip-rule="evenodd" d="M147.398 125.066C147.398 131.447 149.002 137.191 159.548 137.207C170.095 137.223 172.745 120.634 170.059 115.713C167.372 110.792 163.357 102.851 156.18 105.26C149.002 107.669 147.398 118.685 147.398 125.066Z" fill="#6FBF44"/>
<path fill-rule="evenodd" clip-rule="evenodd" d="M168.32 114.872C167.641 121.977 165.341 130.712 158.674 129.942C152.007 129.172 149.749 116.073 152.998 100.464C156.248 84.8545 161.941 59.4601 161.941 59.4601C159.081 54.9079 157.043 49.8349 155.986 44.5853L154.356 40.9507C154.13 40.4468 154.286 39.8595 154.73 39.547C155.146 39.2535 155.712 39.2773 156.114 39.6055L157.924 41.082C158.387 41.4588 158.766 41.9277 159.039 42.4579L161.257 46.7702L161.24 30.3141C161.239 29.6631 161.722 29.1232 162.366 29.0556C163.08 28.9806 163.727 29.511 163.8 30.2311L164.988 41.9465L167.198 28.3278C167.313 27.6191 167.958 27.1322 168.672 27.2146C169.394 27.298 169.934 27.9332 169.902 28.6596L169.292 42.4434L172.903 32.258C173.142 31.5817 173.887 31.2391 174.565 31.4927C175.212 31.7345 175.571 32.435 175.387 33.0949C174.513 36.2317 172.211 44.553 172.503 44.1664C172.773 43.8087 174.434 40.4616 175.242 38.8226C175.491 38.3177 176.089 38.0978 176.614 38.3186C177.141 38.5401 177.414 39.1299 177.24 39.6683L173.273 51.9508L171.3 60.0151C171.3 60.0151 169 107.767 168.32 114.872Z" fill="#FFD1AB"/>
<path d="M161.54 46.0611C161.54 46.0611 167.822 50.55 167.538 53.5152" stroke="white" stroke-width="1.3" stroke-linecap="round"/>
<path d="M173.447 44.3624C173.447 44.3624 169.69 41.3361 163.636 41.6895" stroke="white" stroke-width="1.3" stroke-linecap="round"/>
<path fill-rule="evenodd" clip-rule="evenodd" d="M91.2481 81.1445C91.2481 81.1445 92.9437 86.7895 92.0959 92.3762C91.2481 97.9628 91.2481 100.128 89.8778 101.021C89.8778 101.021 95.033 105.942 100.14 105.942C105.248 105.942 109.947 101.021 109.947 101.021C109.947 101.021 106.929 99.8223 106.929 93.4575C106.929 87.0927 107.34 79.3467 107.34 79.3467L91.2481 81.1445Z" fill="#FFD1AB"/>
<path fill-rule="evenodd" clip-rule="evenodd" d="M107.088 85.0236C106.982 88.0123 106.929 90.8236 106.929 93.4575C106.929 96.4354 107.425 98.5652 108.416 99.8469C98.5893 95.6272 93.2527 92.6525 92.4059 90.9226C92.4359 89.9975 92.4211 89.0906 92.375 88.2266C92.3616 87.4348 92.3102 86.6421 92.2207 85.8485L107.088 85.0236Z" fill="#CF8B54"/>
<path fill-rule="evenodd" clip-rule="evenodd" d="M89.1044 80.432C85.5754 74.4802 84.4805 63.2574 92.1646 60.7843C92.6864 52.3228 110.173 55.9802 112.398 64.9963C114.623 74.0124 110.045 86.7781 103.605 88.3067C97.165 89.8354 92.6333 86.3839 89.1044 80.432Z" fill="#18233D"/>
<path d="M95.6306 61.6115C95.6306 61.6115 102.136 64.0832 106.295 64.0832" stroke="white" stroke-width="1.3" stroke-linecap="round"/>
<path fill-rule="evenodd" clip-rule="evenodd" d="M92.5837 65.7568C94.6538 64.874 100.229 66.9266 102.649 67.3817C104.573 67.7436 107.171 68.359 108.416 66.2802C108.029 77.7234 108.905 74.5057 109.985 74.6337C110.205 74.5612 110.438 74.5223 110.679 74.5223C112.038 74.5223 113.14 75.7595 113.14 77.2856C113.14 78.8117 112.038 80.0489 110.679 80.0489C110.045 80.0489 109.468 79.7799 109.031 79.3382C109.035 84.1807 107.174 93.3425 99.5214 93.3425C91.8687 93.3425 91.043 85.8171 90.1202 79.1465C89.9531 79.1867 89.7797 79.2079 89.6019 79.2079C88.2428 79.2079 87.1411 77.9707 87.1411 76.4446C87.1411 74.9185 88.2428 73.6813 89.6019 73.6813C89.6978 73.6813 89.6771 75.1352 90.1202 74.9644C91.4087 74.1884 91.1744 70.2217 92.5837 65.7568Z" fill="#FFD1AB"/>
<path d="M97.1958 85.8491C97.1958 85.8491 98.2839 87.3467 100.604 85.8491" stroke="#18233D" stroke-width="1.3" stroke-linecap="round"/>
<path d="M98.6846 75.7059C99.1673 77.7056 97.6318 81.9076 97.3169 83.0101C97.002 84.1125 98.8068 83.0101 98.8068 83.0101" stroke="#18233D" stroke-width="1.3" stroke-linecap="round"/>
<path d="M101.422 73.4533C101.422 73.4533 103.573 72.3293 105.788 73.8821" stroke="#18233D" stroke-width="1.3" stroke-linecap="round"/>
<path d="M92.6286 73.6919C92.6286 73.6919 94.6602 72.3284 97.011 73.6198" stroke="#18233D" stroke-width="1.3" stroke-linecap="round"/>
<ellipse cx="103.333" cy="75.712" rx="0.684176" ry="0.747606" fill="#18233D"/>
<ellipse cx="95.1231" cy="75.712" rx="0.684176" ry="0.747606" fill="#18233D"/>
<path d="M109.947 77.9548L111.315 77.4564" stroke="#18233D" stroke-width="1.3" stroke-linecap="round"/>
<path d="M89.8778 76.958L88.5095 76.4596" stroke="#18233D" stroke-width="1.3" stroke-linecap="round"/>
<path d="M112.968 72.9813L114.036 78.6068" stroke="white" stroke-width="1.3" stroke-linecap="round"/>
<rect x="96.9279" y="115.567" width="12.9517" height="26.2077" rx="1.3" fill="#FE8B6E"/>
<path fill-rule="evenodd" clip-rule="evenodd" d="M47.3394 144.037C47.3394 144.037 41.1252 163.911 52.4078 167.63C63.6905 171.35 95.7728 141.021 95.7728 141.021C95.7728 141.021 104.521 139.128 105.788 133.937C107.055 128.747 107.532 123.872 107.532 123.872L96.9206 129.223V125.479C96.9206 125.479 94.2551 126.809 92.9851 130.544C86.7514 133.996 54.5939 149.595 54.5939 149.595L47.3394 144.037Z" fill="#FFD1AB"/>
<path d="M107.164 127.505C107.164 127.505 104.493 129.914 103.074 130.5" stroke="#18233D" stroke-width="1.3" stroke-linecap="round"/>
<path d="M107.164 129.752C107.164 129.752 104.493 132.16 103.074 132.747" stroke="#18233D" stroke-width="1.3" stroke-linecap="round"/>
<path d="M105.801 133.496C105.801 133.496 104.02 135.302 103.074 135.742" stroke="#18233D" stroke-width="1.3" stroke-linecap="round"/>
<path d="M50.9954 151.072C50.9954 151.072 66.465 143.761 72.2755 140.596" stroke="white" stroke-width="1.3" stroke-linecap="round"/>
<path fill-rule="evenodd" clip-rule="evenodd" d="M205.459 78.3413C205.459 78.3413 199.041 77.9155 197.545 83.6301C196.048 89.3448 196.653 112.553 190.995 118.086C185.337 123.619 200.031 136.878 217.355 131.48C234.68 126.081 233.833 120.098 231.383 115.4C228.933 110.702 228.646 88.0512 221.167 79.0305C213.688 70.0097 205.459 78.3413 205.459 78.3413Z" fill="#18233D"/>
<path fill-rule="evenodd" clip-rule="evenodd" d="M188.639 166.098C188.639 166.098 183.452 196.711 187.334 213.351C191.216 229.992 198.655 262.598 198.655 262.598C198.655 262.598 194.246 273.916 194.246 291.779C194.246 309.642 192.164 328.931 192.164 328.931H204.028C204.028 328.931 216.051 268.988 217.647 255.099C218.272 249.656 214.173 224.278 213.183 203.429C212.489 188.812 213.825 160.452 213.825 160.452L188.639 166.098Z" fill="url(#paint1_linear_7_4)"/>
<path fill-rule="evenodd" clip-rule="evenodd" d="M230.119 165.694L262.701 328.93H250.61C250.61 328.93 237.373 295.462 235.43 288.081C233.487 280.699 232.026 266.715 232.026 266.715C232.026 266.715 217.797 219.987 212.735 203.722C207.115 185.666 202.117 176.879 201.351 165.694H230.119Z" fill="url(#paint2_linear_7_4)"/>
<path fill-rule="evenodd" clip-rule="evenodd" d="M204.678 114.027C204.678 114.027 190.58 114.555 187.388 120.055C184.196 125.555 190.862 151.447 190.862 151.447C190.862 151.447 186.42 166.711 187.388 169.212C188.356 171.712 230.946 170.756 232.74 170.756C234.534 170.756 229.077 151.447 229.077 151.447C229.077 151.447 237.479 131.85 237.479 122.939C237.479 114.027 204.678 114.027 204.678 114.027Z" fill="#6FBF44"/>
<path fill-rule="evenodd" clip-rule="evenodd" d="M187.718 169.771L213.105 140.235L223.846 141.312L215.545 144.103L216.33 145.348C216.33 145.348 209.996 158.118 205.782 162.984C201.567 167.85 195.283 170.935 195.283 170.935C195.283 170.935 191.777 170.862 189.929 170.578C188.08 170.293 187.718 169.771 187.718 169.771Z" fill="#2B8C6B"/>
<path d="M210.213 79.5825C210.213 79.5825 218.007 90.0656 222.483 90.0656" stroke="white" stroke-width="1.3" stroke-linecap="round"/>
<path fill-rule="evenodd" clip-rule="evenodd" d="M204.175 97.3806C204.175 97.3806 205.464 102.481 204.819 107.529C204.175 112.577 204.175 114.534 203.133 115.341C203.133 115.341 201.813 125.603 210.186 126.279C218.558 126.956 218.387 115.341 218.387 115.341C218.387 115.341 216.094 114.258 216.094 108.506C216.094 102.755 216.406 95.7562 216.406 95.7562L204.175 97.3806Z" fill="#FFD1AB"/>
<path fill-rule="evenodd" clip-rule="evenodd" d="M216.166 100.886C216.087 103.586 216.047 106.127 216.047 108.507C216.047 111.197 216.42 113.122 217.167 114.28C209.763 110.467 205.741 107.779 205.103 106.216C205.126 105.38 205.115 104.561 205.08 103.78C205.07 103.064 205.031 102.348 204.964 101.631L216.166 100.886Z" fill="#CF8B54"/>
<path fill-rule="evenodd" clip-rule="evenodd" d="M206.951 84.626C210.276 83.5641 210.892 86.9968 213.075 88.7887C215.259 90.5805 218.675 92.0585 219.642 92.1741C219.839 92.1086 220.047 92.0735 220.263 92.0735C221.479 92.0735 222.466 93.1914 222.466 94.5704C222.466 95.9494 221.479 97.0672 220.263 97.0672C219.696 97.0672 219.179 96.8242 218.788 96.425C218.791 100.801 217.126 109.079 210.276 109.079C203.426 109.079 202.687 102.279 201.861 96.2518C201.711 96.2882 201.556 96.3073 201.397 96.3073C200.18 96.3073 199.194 95.1894 199.194 93.8104C199.194 92.4315 200.18 91.3136 201.397 91.3136C201.483 91.3136 206.876 89.2354 206.951 84.626Z" fill="#FFD1AB"/>
<path d="M209.527 93.1429C209.959 94.9498 208.584 98.7467 208.302 99.7428C208.021 100.739 209.636 99.7428 209.636 99.7428" stroke="#18233D" stroke-width="1.3" stroke-linecap="round"/>
<path d="M211.977 91.1076C211.977 91.1076 213.903 90.0919 215.885 91.495" stroke="#18233D" stroke-width="1.3" stroke-linecap="round"/>
<path d="M204.106 91.3231C204.106 91.3231 205.924 90.091 208.029 91.2579" stroke="#18233D" stroke-width="1.3" stroke-linecap="round"/>
<ellipse cx="213.688" cy="93.1484" rx="0.612409" ry="0.675526" fill="#18233D"/>
<ellipse cx="206.339" cy="93.1484" rx="0.612409" ry="0.675526" fill="#18233D"/>
<path fill-rule="evenodd" clip-rule="evenodd" d="M207.768 102.242L211.504 101.93C211.504 101.93 210.974 104.003 209.636 104.003C208.299 104.003 207.768 102.242 207.768 102.242Z" fill="white"/>
<path d="M219.608 95.175L220.833 94.7246" stroke="#18233D" stroke-width="1.3" stroke-linecap="round"/>
<path d="M201.644 94.2743L200.419 93.8239" stroke="#18233D" stroke-width="1.3" stroke-linecap="round"/>
<path fill-rule="evenodd" clip-rule="evenodd" d="M281.393 105.78C279.315 111.43 276.821 119.596 271.394 117.187C265.966 114.779 266.853 103.426 272.89 91.4827C278.928 79.5391 289.092 60.2167 289.092 60.2167L289.046 60.0735C287.635 55.642 287.027 51.0099 287.254 46.4222L286.667 43.0543C286.58 42.557 286.85 42.0849 287.303 41.942C287.699 41.8173 288.138 41.9756 288.394 42.335L289.606 44.0399C289.925 44.4882 290.153 44.9973 290.276 45.5342L291.211 49.6203L294.673 36.1722C294.819 35.6049 295.356 35.2642 295.918 35.3819C296.526 35.5095 296.943 36.1255 296.849 36.7568L295.363 46.6562L300.086 36.1167C300.345 35.5386 300.997 35.2902 301.579 35.5484C302.167 35.8094 302.479 36.4971 302.288 37.114L298.867 48.2112L304.043 40.8348C304.398 40.3296 305.086 40.2323 305.594 40.6158C306.093 40.9927 306.241 41.6975 305.929 42.2205C304.506 44.6034 300.87 50.7189 301.194 50.4813C301.496 50.2601 303.591 47.9662 304.619 46.8338C304.941 46.4789 305.479 46.4481 305.865 46.7634C306.267 47.0918 306.366 47.6813 306.09 48.1018L300.188 57.0748L296.822 63.1669C296.822 63.1669 283.471 100.131 281.393 105.78Z" fill="#FFD1AB"/>
<path d="M291.884 49.1051C291.884 49.1051 296.28 54.4534 295.425 56.7798" stroke="white" stroke-width="1.3" stroke-linecap="round"/>
<path d="M302.175 51.4186C302.175 51.4186 299.651 47.8469 294.429 46.5245" stroke="white" stroke-width="1.3" stroke-linecap="round"/>
<path fill-rule="evenodd" clip-rule="evenodd" d="M226.573 116.562L240.346 114.434L265.651 101.234L287.725 61.6115L298.829 64.7665C298.829 64.7665 282.82 110.638 277.039 117.205C271.259 123.772 230.458 142.481 230.458 142.481L226.573 116.562Z" fill="#6FBF44"/>
<path d="M265.428 101.297L266.791 105.79" stroke="white" stroke-width="1.3" stroke-linecap="round"/>
<path fill-rule="evenodd" clip-rule="evenodd" d="M216.105 110.287C216.105 110.287 220.157 110.417 221.436 115.036C222.714 119.655 221.848 134.667 226.041 138.561L221.92 143.788C221.92 143.788 204.19 139.036 199.56 127.036C194.93 115.036 204.578 110.403 204.578 110.403L203.877 114.217C203.877 114.217 200.22 117.717 201.8 122.911C203.38 128.105 213.932 136.935 219.186 138.112C218.171 133.02 217.403 123.976 217.913 119.036C218.423 114.097 215.94 112.662 215.94 112.662L216.105 110.287Z" fill="url(#paint3_linear_7_4)"/>
<mask id="mask1_7_4" style="mask-type:luminance" maskUnits="userSpaceOnUse" x="198" y="110" width="29" height="34">
<path fill-rule="evenodd" clip-rule="evenodd" d="M216.105 110.287C216.105 110.287 220.157 110.417 221.436 115.036C222.714 119.655 221.848 134.667 226.041 138.561L221.92 143.788C221.92 143.788 204.19 139.036 199.56 127.036C194.93 115.036 204.578 110.403 204.578 110.403L203.877 114.217C203.877 114.217 200.22 117.717 201.8 122.911C203.38 128.105 213.932 136.935 219.186 138.112C218.171 133.02 217.403 123.976 217.913 119.036C218.423 114.097 215.94 112.662 215.94 112.662L216.105 110.287Z" fill="white"/>
</mask>
<g mask="url(#mask1_7_4)">
<path fill-rule="evenodd" clip-rule="evenodd" d="M222.01 118.961L217.823 120.157C217.847 119.765 217.877 119.39 217.913 119.036C218.253 115.743 217.596 113.618 215.94 112.661L216.105 110.287C218.807 110.373 220.584 111.956 221.436 115.036C221.696 115.975 221.867 117.344 222.01 118.961ZM199.466 114.778C200.569 112.951 202.327 111.452 204.741 110.283L204.04 114.097C203.067 115.019 202.357 116.017 201.91 117.093L199.466 114.778Z" fill="url(#paint4_linear_7_4)"/>
<path d="M215.643 110.935C215.643 110.935 219.737 111.442 220.587 116.939C221.436 122.437 219.124 130.949 222.704 138.129" stroke="white" stroke-width="1.69"/>
<path fill-rule="evenodd" clip-rule="evenodd" d="M219.186 138.112L221.92 143.788C221.92 143.788 217.056 142.23 215.103 141.59C213.15 140.95 213.573 135.362 213.573 135.362C213.573 135.362 215.444 136.633 216.575 137.187C217.706 137.742 219.186 138.112 219.186 138.112Z" fill="url(#paint5_linear_7_4)"/>
<path d="M204.418 112.103C204.418 112.103 200.265 113.668 199.56 119.655C198.855 125.643 206.669 137.244 218.932 140.979" stroke="white" stroke-width="1.3" stroke-linecap="round"/>
</g>
<ellipse cx="6.11893" cy="7.25958" rx="6.11893" ry="7.25958" transform="matrix(-0.294703 0.996317 0.903868 0.322604 223.189 135.857)" fill="#F5BB37"/>
<mask id="mask2_7_4" style="mask-type:luminance" maskUnits="userSpaceOnUse" x="221" y="137" width="14" height="14">
<ellipse cx="6.11893" cy="7.25958" rx="6.11893" ry="7.25958" transform="matrix(-0.294703 0.996317 0.903868 0.322604 223.189 135.857)" fill="white"/>
</mask>
<g mask="url(#mask2_7_4)">
<path d="M223.266 143.473L221.095 146.841L220.242 146.147L222.412 142.78L223.266 143.473Z" fill="url(#paint6_linear_7_4)"/>
<path d="M225 146.87L223.433 149.504L222.558 148.845L224.125 146.212L225 146.87Z" fill="url(#paint7_linear_7_4)"/>
<path d="M227.603 148.487L226.64 151.213L225.666 150.765L226.629 148.039L227.603 148.487Z" fill="url(#paint8_linear_7_4)"/>
<path d="M230.578 148.343L229.493 151.747L228.459 151.554L229.543 148.151L230.578 148.343Z" fill="url(#paint9_linear_7_4)"/>
<path d="M233.193 147.959L232.622 150.174L231.594 150.357L232.165 148.143L233.193 147.959Z" fill="url(#paint10_linear_7_4)"/>
</g>
<ellipse cx="6.11893" cy="7.25958" rx="6.11893" ry="7.25958" transform="matrix(-0.294703 0.996317 0.903868 0.322604 223.657 134.902)" fill="url(#paint11_linear_7_4)"/>
<ellipse cx="4.63052" cy="5.43084" rx="4.63052" ry="5.43084" transform="matrix(-0.294703 0.996317 0.903868 0.322604 224.871 136.975)" stroke="white" stroke-width="0.845"/>
<path d="M225.674 143.78C225.518 143.725 225.399 143.578 225.362 143.396C225.326 143.215 225.38 143.036 225.503 142.93L226.602 141.987C226.648 141.947 226.673 141.881 226.668 141.811L226.546 140.176C226.533 139.992 226.609 139.826 226.746 139.742C226.883 139.659 227.052 139.676 227.186 139.786L228.385 140.766C228.436 140.808 228.5 140.82 228.556 140.797L229.866 140.274C230.013 140.215 230.18 140.259 230.301 140.39C230.422 140.52 230.472 140.709 230.432 140.883L230.074 142.432C230.059 142.498 230.073 142.571 230.113 142.626L231.044 143.939C231.126 144.054 231.16 144.194 231.141 144.333C231.111 144.549 230.949 144.708 230.754 144.705L229.334 144.682C229.275 144.681 229.218 144.716 229.188 144.771L228.453 146.106C228.417 146.171 228.37 146.221 228.312 146.256C228.207 146.321 228.079 146.325 227.961 146.269C227.844 146.214 227.754 146.107 227.708 145.97L227.189 144.407C227.166 144.34 227.118 144.288 227.059 144.267L225.674 143.78Z" fill="url(#paint12_linear_7_4)"/>
<path fill-rule="evenodd" clip-rule="evenodd" d="M191.189 116.717C191.189 116.717 185.056 118.196 182.723 126.936C180.39 135.676 173.363 153.972 176.051 164.687C177.167 169.135 181.982 171.006 187.951 169.854C196.364 168.232 204.222 160.51 212.939 145.729L207.426 139.986L189.768 152.386L191.189 116.717Z" fill="#6FBF44"/>
<path d="M189.763 152.215L184.991 157.457" stroke="white" stroke-width="1.3" stroke-linecap="round"/>
<path d="M192.851 136.491C191.83 143.369 189.763 152.215 189.763 152.215L207.486 140.044" stroke="white" stroke-width="1.3" stroke-linecap="round"/>
<rect x="214.984" y="124.51" width="8.86167" height="17.971" rx="1.3" fill="#FE8B6E"/>
<path fill-rule="evenodd" clip-rule="evenodd" d="M208.168 140.624C208.168 140.624 211.975 135.3 212.987 133.594C213.998 131.887 215.149 130.12 215.149 130.12V133.594C215.149 133.594 221.541 130.362 221.911 128.254C222.491 132.481 223.204 133.698 220.831 138.01C218.458 142.323 211.813 144.727 211.813 144.727L208.168 140.624Z" fill="#FFD1AB"/>
<path d="M222.483 131.249C222.483 131.249 219.812 133.658 218.393 134.244" stroke="#18233D" stroke-width="1.3" stroke-linecap="round"/>
<path d="M222.483 133.496C222.483 133.496 219.812 135.904 218.393 136.491" stroke="#18233D" stroke-width="1.3" stroke-linecap="round"/>
<path d="M221.119 137.24C221.119 137.24 219.339 139.046 218.393 139.486" stroke="#18233D" stroke-width="1.3" stroke-linecap="round"/>
</g>
<mask id="mask3_7_4" style="mask-type:luminance" maskUnits="userSpaceOnUse" x="32" y="17" width="280" height="270">
<path fill-rule="evenodd" clip-rule="evenodd" d="M43.7689 252.908C43.7689 252.908 103.843 296.832 178.337 284.003C252.831 271.174 280.814 237.893 280.814 237.893L261.791 147.075C261.791 147.075 303.671 113.891 309.444 78.3836C315.217 42.8758 311.684 18.6364 293.969 18.6364C276.254 18.6364 250.903 83.5532 237.479 81.08C224.055 78.6069 220.165 44.1832 204.964 53.5153C189.763 62.8473 195.167 11.6035 163.491 18.6364C131.815 25.6694 155.667 65.6415 125.053 53.5153C94.439 41.3891 69.8797 50.0618 61.6355 72.3406C53.3913 94.6194 23.6474 121.299 34.3898 160.719C45.1323 200.138 52.0669 196.882 50.9954 221.104C49.924 245.326 43.7689 252.908 43.7689 252.908Z" fill="white"/>
</mask>
<g mask="url(#mask3_7_4)">
<path fill-rule="evenodd" clip-rule="evenodd" d="M79.9523 160.719C79.9523 160.719 76.3321 166.666 75.2474 186.996C74.1626 207.326 72.2755 329.129 72.2755 329.129H89.8778C89.8778 329.129 97.198 249.874 98.3023 234.635C99.4066 219.396 105.788 161.79 105.788 161.79L79.9523 160.719Z" fill="#6FBF44"/>
<path fill-rule="evenodd" clip-rule="evenodd" d="M102.388 192.276L96.9279 186.057L88.4071 329.129H89.8779L102.388 192.276Z" fill="#2B8C6B"/>
<path d="M102.388 192.65L96.3123 184.769" stroke="white" stroke-width="1.3" stroke-linecap="round"/>
<path d="M81.4003 161.79C81.4003 161.79 76.3322 186.13 76.3322 210.312C76.3322 234.493 73.7623 328.863 73.7623 328.863" stroke="white" stroke-width="1.3" stroke-linecap="round"/>
<path fill-rule="evenodd" clip-rule="evenodd" d="M124.138 160.452C124.138 160.452 129.338 175.464 129.338 189.34C129.338 203.216 131.815 328.863 131.815 328.863H114.212C114.212 328.863 108.636 249.874 107.532 234.635C106.428 219.396 98.3024 161.523 98.3024 161.523L124.138 160.452Z" fill="#6FBF44"/>
<path d="M120.38 160.719C120.38 160.719 125.201 175.709 126.584 197.97C127.967 220.232 129.726 328.863 129.726 328.863" stroke="white" stroke-width="1.3" stroke-linecap="round"/>
<path fill-rule="evenodd" clip-rule="evenodd" d="M79.9523 161.79C79.9523 161.79 91.3187 163.462 103.404 163.462C115.489 163.462 123.582 161.79 123.582 161.79H79.9523Z" fill="white"/>
<path fill-rule="evenodd" clip-rule="evenodd" d="M92.5837 99.8469C92.5837 99.8469 75.3683 101.432 68.3639 107.481C61.3595 113.53 49.924 137.43 49.924 137.43L64.8312 149.595L72.4957 137.43C72.4957 137.43 74.1919 156.877 79.9523 161.79H123.582C123.582 161.79 130.301 155.289 132.446 137.43L158.831 134.993L157.111 112.103C157.111 112.103 130.426 99.4174 106.295 99.8952L92.5837 99.8469Z" fill="url(#paint13_linear_7_4)"/>
<path fill-rule="evenodd" clip-rule="evenodd" d="M53.3435 133.958C51.2375 132.601 49.5142 135.645 47.6079 138.745C45.7017 141.845 44.2548 141.941 47.3393 144.037C50.4239 146.132 61.1686 157.166 62.9268 155.52C64.6851 153.874 64.5342 149.099 65.9589 148.766C67.3836 148.434 69.5188 147.501 66.5268 144.006C63.5349 140.51 55.4496 135.315 53.3435 133.958Z" fill="#6FBF44"/>
<path fill-rule="evenodd" clip-rule="evenodd" d="M147.398 125.066C147.398 131.447 149.002 137.191 159.548 137.207C170.095 137.223 172.745 120.634 170.059 115.713C167.372 110.792 163.357 102.851 156.18 105.26C149.002 107.669 147.398 118.685 147.398 125.066Z" fill="#6FBF44"/>
<path fill-rule="evenodd" clip-rule="evenodd" d="M168.32 114.872C167.641 121.977 165.341 130.712 158.674 129.942C152.007 129.172 149.749 116.073 152.998 100.464C156.248 84.8545 161.941 59.4601 161.941 59.4601C159.081 54.9079 157.043 49.8349 155.986 44.5853L154.356 40.9507C154.13 40.4468 154.286 39.8595 154.73 39.547C155.146 39.2535 155.712 39.2773 156.114 39.6055L157.924 41.082C158.387 41.4588 158.766 41.9277 159.039 42.4579L161.257 46.7702L161.24 30.3141C161.239 29.6631 161.722 29.1232 162.366 29.0556C163.08 28.9806 163.727 29.511 163.8 30.2311L164.988 41.9465L167.198 28.3278C167.313 27.6191 167.958 27.1322 168.672 27.2146C169.394 27.298 169.934 27.9332 169.902 28.6596L169.292 42.4434L172.903 32.258C173.142 31.5817 173.887 31.2391 174.565 31.4927C175.212 31.7345 175.571 32.435 175.387 33.0949C174.513 36.2317 172.211 44.553 172.503 44.1664C172.773 43.8087 174.434 40.4616 175.242 38.8226C175.491 38.3177 176.089 38.0978 176.614 38.3186C177.141 38.5401 177.414 39.1299 177.24 39.6683L173.273 51.9508L171.3 60.0151C171.3 60.0151 169 107.767 168.32 114.872Z" fill="#FFD1AB"/>
<path d="M161.54 46.0611C161.54 46.0611 167.822 50.55 167.538 53.5152" stroke="white" stroke-width="1.3" stroke-linecap="round"/>
<path d="M173.447 44.3624C173.447 44.3624 169.69 41.3361 163.636 41.6895" stroke="white" stroke-width="1.3" stroke-linecap="round"/>
<path fill-rule="evenodd" clip-rule="evenodd" d="M91.2481 81.1445C91.2481 81.1445 92.9437 86.7895 92.0959 92.3762C91.2481 97.9628 91.2481 100.128 89.8778 101.021C89.8778 101.021 95.033 105.942 100.14 105.942C105.248 105.942 109.947 101.021 109.947 101.021C109.947 101.021 106.929 99.8223 106.929 93.4575C106.929 87.0927 107.34 79.3467 107.34 79.3467L91.2481 81.1445Z" fill="#FFD1AB"/>
<path fill-rule="evenodd" clip-rule="evenodd" d="M107.088 85.0236C106.982 88.0123 106.929 90.8236 106.929 93.4575C106.929 96.4354 107.425 98.5652 108.416 99.8469C98.5893 95.6272 93.2527 92.6525 92.4059 90.9226C92.4359 89.9975 92.4211 89.0906 92.375 88.2266C92.3616 87.4348 92.3102 86.6421 92.2207 85.8485L107.088 85.0236Z" fill="#CF8B54"/>
<path fill-rule="evenodd" clip-rule="evenodd" d="M89.1044 80.432C85.5754 74.4802 84.4805 63.2574 92.1646 60.7843C92.6864 52.3228 110.173 55.9802 112.398 64.9963C114.623 74.0124 110.045 86.7781 103.605 88.3067C97.165 89.8354 92.6333 86.3839 89.1044 80.432Z" fill="#18233D"/>
<path d="M95.6306 61.6115C95.6306 61.6115 102.136 64.0832 106.295 64.0832" stroke="white" stroke-width="1.3" stroke-linecap="round"/>
<path fill-rule="evenodd" clip-rule="evenodd" d="M92.5837 65.7568C94.6538 64.874 100.229 66.9266 102.649 67.3817C104.573 67.7436 107.171 68.359 108.416 66.2802C108.029 77.7234 108.905 74.5057 109.985 74.6337C110.205 74.5612 110.438 74.5223 110.679 74.5223C112.038 74.5223 113.14 75.7595 113.14 77.2856C113.14 78.8117 112.038 80.0489 110.679 80.0489C110.045 80.0489 109.468 79.7799 109.031 79.3382C109.035 84.1807 107.174 93.3425 99.5214 93.3425C91.8687 93.3425 91.043 85.8171 90.1202 79.1465C89.9531 79.1867 89.7797 79.2079 89.6019 79.2079C88.2428 79.2079 87.1411 77.9707 87.1411 76.4446C87.1411 74.9185 88.2428 73.6813 89.6019 73.6813C89.6978 73.6813 89.6771 75.1352 90.1202 74.9644C91.4087 74.1884 91.1744 70.2217 92.5837 65.7568Z" fill="#FFD1AB"/>
<path d="M97.1958 85.8491C97.1958 85.8491 98.2839 87.3467 100.604 85.8491" stroke="#18233D" stroke-width="1.3" stroke-linecap="round"/>
<path d="M98.6846 75.7059C99.1673 77.7056 97.6318 81.9076 97.3169 83.0101C97.002 84.1125 98.8068 83.0101 98.8068 83.0101" stroke="#18233D" stroke-width="1.3" stroke-linecap="round"/>
<path d="M101.422 73.4533C101.422 73.4533 103.573 72.3293 105.788 73.8821" stroke="#18233D" stroke-width="1.3" stroke-linecap="round"/>
<path d="M92.6286 73.6919C92.6286 73.6919 94.6602 72.3284 97.011 73.6198" stroke="#18233D" stroke-width="1.3" stroke-linecap="round"/>
<ellipse cx="103.333" cy="75.712" rx="0.684176" ry="0.747606" fill="#18233D"/>
<ellipse cx="95.1231" cy="75.712" rx="0.684176" ry="0.747606" fill="#18233D"/>
<path d="M109.947 77.9548L111.315 77.4564" stroke="#18233D" stroke-width="1.3" stroke-linecap="round"/>
<path d="M89.8778 76.958L88.5095 76.4596" stroke="#18233D" stroke-width="1.3" stroke-linecap="round"/>
<path d="M112.968 72.9813L114.036 78.6068" stroke="white" stroke-width="1.3" stroke-linecap="round"/>
<rect x="96.9279" y="115.567" width="12.9517" height="26.2077" rx="1.3" fill="#FE8B6E"/>
<path fill-rule="evenodd" clip-rule="evenodd" d="M47.3394 144.037C47.3394 144.037 41.1252 163.911 52.4078 167.63C63.6905 171.35 95.7728 141.021 95.7728 141.021C95.7728 141.021 104.521 139.128 105.788 133.937C107.055 128.747 107.532 123.872 107.532 123.872L96.9206 129.223V125.479C96.9206 125.479 94.2551 126.809 92.9851 130.544C86.7514 133.996 54.5939 149.595 54.5939 149.595L47.3394 144.037Z" fill="#FFD1AB"/>
<path d="M107.164 127.505C107.164 127.505 104.493 129.914 103.074 130.5" stroke="#18233D" stroke-width="1.3" stroke-linecap="round"/>
<path d="M107.164 129.752C107.164 129.752 104.493 132.16 103.074 132.747" stroke="#18233D" stroke-width="1.3" stroke-linecap="round"/>
<path d="M105.801 133.496C105.801 133.496 104.02 135.302 103.074 135.742" stroke="#18233D" stroke-width="1.3" stroke-linecap="round"/>
<path d="M50.9954 151.072C50.9954 151.072 66.465 143.761 72.2755 140.596" stroke="white" stroke-width="1.3" stroke-linecap="round"/>
<path fill-rule="evenodd" clip-rule="evenodd" d="M205.459 78.3413C205.459 78.3413 199.041 77.9155 197.545 83.6301C196.048 89.3448 196.653 112.553 190.995 118.086C185.337 123.619 200.031 136.878 217.355 131.48C234.68 126.081 233.833 120.098 231.383 115.4C228.933 110.702 228.646 88.0512 221.167 79.0305C213.688 70.0097 205.459 78.3413 205.459 78.3413Z" fill="#18233D"/>
<path fill-rule="evenodd" clip-rule="evenodd" d="M188.639 166.098C188.639 166.098 183.452 196.711 187.334 213.351C191.216 229.992 198.655 262.598 198.655 262.598C198.655 262.598 194.246 273.916 194.246 291.779C194.246 309.642 192.164 328.931 192.164 328.931H204.028C204.028 328.931 216.051 268.988 217.647 255.099C218.272 249.656 214.173 224.278 213.183 203.429C212.489 188.812 213.825 160.452 213.825 160.452L188.639 166.098Z" fill="url(#paint14_linear_7_4)"/>
<path fill-rule="evenodd" clip-rule="evenodd" d="M230.119 165.694L262.701 328.93H250.61C250.61 328.93 237.373 295.462 235.43 288.081C233.487 280.699 232.026 266.715 232.026 266.715C232.026 266.715 217.797 219.987 212.735 203.722C207.115 185.666 202.117 176.879 201.351 165.694H230.119Z" fill="url(#paint15_linear_7_4)"/>
<path fill-rule="evenodd" clip-rule="evenodd" d="M204.678 114.027C204.678 114.027 190.58 114.555 187.388 120.055C184.196 125.555 190.862 151.447 190.862 151.447C190.862 151.447 186.42 166.711 187.388 169.212C188.356 171.712 230.946 170.756 232.74 170.756C234.534 170.756 229.077 151.447 229.077 151.447C229.077 151.447 237.479 131.85 237.479 122.939C237.479 114.027 204.678 114.027 204.678 114.027Z" fill="#6FBF44"/>
<path fill-rule="evenodd" clip-rule="evenodd" d="M187.718 169.771L213.105 140.235L223.846 141.312L215.545 144.103L216.33 145.348C216.33 145.348 209.996 158.118 205.782 162.984C201.567 167.85 195.283 170.935 195.283 170.935C195.283 170.935 191.777 170.862 189.929 170.578C188.08 170.293 187.718 169.771 187.718 169.771Z" fill="#2B8C6B"/>
<path d="M210.213 79.5825C210.213 79.5825 218.007 90.0656 222.483 90.0656" stroke="white" stroke-width="1.3" stroke-linecap="round"/>
<path fill-rule="evenodd" clip-rule="evenodd" d="M204.175 97.3806C204.175 97.3806 205.464 102.481 204.819 107.529C204.175 112.577 204.175 114.534 203.133 115.341C203.133 115.341 201.813 125.603 210.186 126.279C218.558 126.956 218.387 115.341 218.387 115.341C218.387 115.341 216.094 114.258 216.094 108.506C216.094 102.755 216.406 95.7562 216.406 95.7562L204.175 97.3806Z" fill="#FFD1AB"/>
<path fill-rule="evenodd" clip-rule="evenodd" d="M216.166 100.886C216.087 103.586 216.047 106.127 216.047 108.507C216.047 111.197 216.42 113.122 217.167 114.28C209.763 110.467 205.741 107.779 205.103 106.216C205.126 105.38 205.115 104.561 205.08 103.78C205.07 103.064 205.031 102.348 204.964 101.631L216.166 100.886Z" fill="#CF8B54"/>
<path fill-rule="evenodd" clip-rule="evenodd" d="M206.951 84.626C210.276 83.5641 210.892 86.9968 213.075 88.7887C215.259 90.5805 218.675 92.0585 219.642 92.1741C219.839 92.1086 220.047 92.0735 220.263 92.0735C221.479 92.0735 222.466 93.1914 222.466 94.5704C222.466 95.9494 221.479 97.0672 220.263 97.0672C219.696 97.0672 219.179 96.8242 218.788 96.425C218.791 100.801 217.126 109.079 210.276 109.079C203.426 109.079 202.687 102.279 201.861 96.2518C201.711 96.2882 201.556 96.3073 201.397 96.3073C200.18 96.3073 199.194 95.1894 199.194 93.8104C199.194 92.4315 200.18 91.3136 201.397 91.3136C201.483 91.3136 206.876 89.2354 206.951 84.626Z" fill="#FFD1AB"/>
<path d="M209.527 93.1429C209.959 94.9498 208.584 98.7467 208.302 99.7428C208.021 100.739 209.636 99.7428 209.636 99.7428" stroke="#18233D" stroke-width="1.3" stroke-linecap="round"/>
<path d="M211.977 91.1076C211.977 91.1076 213.903 90.0919 215.885 91.495" stroke="#18233D" stroke-width="1.3" stroke-linecap="round"/>
<path d="M204.106 91.3231C204.106 91.3231 205.924 90.091 208.029 91.2579" stroke="#18233D" stroke-width="1.3" stroke-linecap="round"/>
<ellipse cx="213.688" cy="93.1484" rx="0.612409" ry="0.675526" fill="#18233D"/>
<ellipse cx="206.339" cy="93.1484" rx="0.612409" ry="0.675526" fill="#18233D"/>
<path fill-rule="evenodd" clip-rule="evenodd" d="M207.768 102.242L211.504 101.93C211.504 101.93 210.974 104.003 209.636 104.003C208.299 104.003 207.768 102.242 207.768 102.242Z" fill="white"/>
<path d="M219.608 95.175L220.833 94.7246" stroke="#18233D" stroke-width="1.3" stroke-linecap="round"/>
<path d="M201.644 94.2743L200.419 93.8239" stroke="#18233D" stroke-width="1.3" stroke-linecap="round"/>
<path fill-rule="evenodd" clip-rule="evenodd" d="M281.393 105.78C279.315 111.43 276.821 119.596 271.394 117.187C265.966 114.779 266.853 103.426 272.89 91.4827C278.928 79.5391 289.092 60.2167 289.092 60.2167L289.046 60.0735C287.635 55.642 287.027 51.0099 287.254 46.4222L286.667 43.0543C286.58 42.557 286.85 42.0849 287.303 41.942C287.699 41.8173 288.138 41.9756 288.394 42.335L289.606 44.0399C289.925 44.4882 290.153 44.9973 290.276 45.5342L291.211 49.6203L294.673 36.1722C294.819 35.6049 295.356 35.2642 295.918 35.3819C296.526 35.5095 296.943 36.1255 296.849 36.7568L295.363 46.6562L300.086 36.1167C300.345 35.5386 300.997 35.2902 301.579 35.5484C302.167 35.8094 302.479 36.4971 302.288 37.114L298.867 48.2112L304.043 40.8348C304.398 40.3296 305.086 40.2323 305.594 40.6158C306.093 40.9927 306.241 41.6975 305.929 42.2205C304.506 44.6034 300.87 50.7189 301.194 50.4813C301.496 50.2601 303.591 47.9662 304.619 46.8338C304.941 46.4789 305.479 46.4481 305.865 46.7634C306.267 47.0918 306.366 47.6813 306.09 48.1018L300.188 57.0748L296.822 63.1669C296.822 63.1669 283.471 100.131 281.393 105.78Z" fill="#FFD1AB"/>
<path d="M291.884 49.1051C291.884 49.1051 296.28 54.4534 295.425 56.7798" stroke="white" stroke-width="1.3" stroke-linecap="round"/>
<path d="M302.175 51.4186C302.175 51.4186 299.651 47.8469 294.429 46.5245" stroke="white" stroke-width="1.3" stroke-linecap="round"/>
<path fill-rule="evenodd" clip-rule="evenodd" d="M226.573 116.562L240.346 114.434L265.651 101.234L287.725 61.6115L298.829 64.7665C298.829 64.7665 282.82 110.638 277.039 117.205C271.259 123.772 230.458 142.481 230.458 142.481L226.573 116.562Z" fill="#6FBF44"/>
<path d="M265.428 101.297L266.791 105.79" stroke="white" stroke-width="1.3" stroke-linecap="round"/>
<path fill-rule="evenodd" clip-rule="evenodd" d="M216.105 110.287C216.105 110.287 220.157 110.417 221.436 115.036C222.714 119.655 221.848 134.667 226.041 138.561L221.92 143.788C221.92 143.788 204.19 139.036 199.56 127.036C194.93 115.036 204.578 110.403 204.578 110.403L203.877 114.217C203.877 114.217 200.22 117.717 201.8 122.911C203.38 128.105 213.932 136.935 219.186 138.112C218.171 133.02 217.403 123.976 217.913 119.036C218.423 114.097 215.94 112.662 215.94 112.662L216.105 110.287Z" fill="url(#paint16_linear_7_4)"/>
<mask id="mask4_7_4" style="mask-type:luminance" maskUnits="userSpaceOnUse" x="198" y="110" width="29" height="34">
<path fill-rule="evenodd" clip-rule="evenodd" d="M216.105 110.287C216.105 110.287 220.157 110.417 221.436 115.036C222.714 119.655 221.848 134.667 226.041 138.561L221.92 143.788C221.92 143.788 204.19 139.036 199.56 127.036C194.93 115.036 204.578 110.403 204.578 110.403L203.877 114.217C203.877 114.217 200.22 117.717 201.8 122.911C203.38 128.105 213.932 136.935 219.186 138.112C218.171 133.02 217.403 123.976 217.913 119.036C218.423 114.097 215.94 112.662 215.94 112.662L216.105 110.287Z" fill="white"/>
</mask>
<g mask="url(#mask4_7_4)">
<path fill-rule="evenodd" clip-rule="evenodd" d="M222.01 118.961L217.823 120.157C217.847 119.765 217.877 119.39 217.913 119.036C218.253 115.743 217.596 113.618 215.94 112.661L216.105 110.287C218.807 110.373 220.584 111.956 221.436 115.036C221.696 115.975 221.867 117.344 222.01 118.961ZM199.466 114.778C200.569 112.951 202.327 111.452 204.741 110.283L204.04 114.097C203.067 115.019 202.357 116.017 201.91 117.093L199.466 114.778Z" fill="url(#paint17_linear_7_4)"/>
<path d="M215.643 110.935C215.643 110.935 219.737 111.442 220.587 116.939C221.436 122.437 219.124 130.949 222.704 138.129" stroke="white" stroke-width="1.69"/>
<path fill-rule="evenodd" clip-rule="evenodd" d="M219.186 138.112L221.92 143.788C221.92 143.788 217.056 142.23 215.103 141.59C213.15 140.95 213.573 135.362 213.573 135.362C213.573 135.362 215.444 136.633 216.575 137.187C217.706 137.742 219.186 138.112 219.186 138.112Z" fill="url(#paint18_linear_7_4)"/>
<path d="M204.418 112.103C204.418 112.103 200.265 113.668 199.56 119.655C198.855 125.643 206.669 137.244 218.932 140.979" stroke="white" stroke-width="1.3" stroke-linecap="round"/>
</g>
<ellipse cx="6.11893" cy="7.25958" rx="6.11893" ry="7.25958" transform="matrix(-0.294703 0.996317 0.903868 0.322604 223.189 135.857)" fill="#F5BB37"/>
<mask id="mask5_7_4" style="mask-type:luminance" maskUnits="userSpaceOnUse" x="221" y="137" width="14" height="14">
<ellipse cx="6.11893" cy="7.25958" rx="6.11893" ry="7.25958" transform="matrix(-0.294703 0.996317 0.903868 0.322604 223.189 135.857)" fill="white"/>
</mask>
<g mask="url(#mask5_7_4)">
<path d="M223.266 143.473L221.095 146.841L220.242 146.147L222.412 142.78L223.266 143.473Z" fill="url(#paint19_linear_7_4)"/>
<path d="M225 146.87L223.433 149.504L222.558 148.845L224.125 146.212L225 146.87Z" fill="url(#paint20_linear_7_4)"/>
<path d="M227.603 148.487L226.64 151.213L225.666 150.765L226.629 148.039L227.603 148.487Z" fill="url(#paint21_linear_7_4)"/>
<path d="M230.578 148.343L229.493 151.747L228.459 151.554L229.543 148.151L230.578 148.343Z" fill="url(#paint22_linear_7_4)"/>
<path d="M233.193 147.959L232.622 150.174L231.594 150.357L232.165 148.143L233.193 147.959Z" fill="url(#paint23_linear_7_4)"/>
</g>
<ellipse cx="6.11893" cy="7.25958" rx="6.11893" ry="7.25958" transform="matrix(-0.294703 0.996317 0.903868 0.322604 223.657 134.902)" fill="url(#paint24_linear_7_4)"/>
<ellipse cx="4.63052" cy="5.43084" rx="4.63052" ry="5.43084" transform="matrix(-0.294703 0.996317 0.903868 0.322604 224.871 136.975)" stroke="white" stroke-width="0.845"/>
<path d="M225.674 143.78C225.518 143.725 225.399 143.578 225.362 143.396C225.326 143.215 225.38 143.036 225.503 142.93L226.602 141.987C226.648 141.947 226.673 141.881 226.668 141.811L226.546 140.176C226.533 139.992 226.609 139.826 226.746 139.742C226.883 139.659 227.052 139.676 227.186 139.786L228.385 140.766C228.436 140.808 228.5 140.82 228.556 140.797L229.866 140.274C230.013 140.215 230.18 140.259 230.301 140.39C230.422 140.52 230.472 140.709 230.432 140.883L230.074 142.432C230.059 142.498 230.073 142.571 230.113 142.626L231.044 143.939C231.126 144.054 231.16 144.194 231.141 144.333C231.111 144.549 230.949 144.708 230.754 144.705L229.334 144.682C229.275 144.681 229.218 144.716 229.188 144.771L228.453 146.106C228.417 146.171 228.37 146.221 228.312 146.256C228.207 146.321 228.079 146.325 227.961 146.269C227.844 146.214 227.754 146.107 227.708 145.97L227.189 144.407C227.166 144.34 227.118 144.288 227.059 144.267L225.674 143.78Z" fill="url(#paint25_linear_7_4)"/>
<path fill-rule="evenodd" clip-rule="evenodd" d="M191.189 116.717C191.189 116.717 185.056 118.196 182.723 126.936C180.39 135.676 173.363 153.972 176.051 164.687C177.167 169.135 181.982 171.006 187.951 169.854C196.364 168.232 204.222 160.51 212.939 145.729L207.426 139.986L189.768 152.386L191.189 116.717Z" fill="#6FBF44"/>
<path d="M189.763 152.215L184.991 157.457" stroke="white" stroke-width="1.3" stroke-linecap="round"/>
<path d="M192.851 136.491C191.83 143.369 189.763 152.215 189.763 152.215L207.486 140.044" stroke="white" stroke-width="1.3" stroke-linecap="round"/>
<rect x="214.984" y="124.51" width="8.86167" height="17.971" rx="1.3" fill="#FE8B6E"/>
<path fill-rule="evenodd" clip-rule="evenodd" d="M208.168 140.624C208.168 140.624 211.975 135.3 212.987 133.594C213.998 131.887 215.149 130.12 215.149 130.12V133.594C215.149 133.594 221.541 130.362 221.911 128.254C222.491 132.481 223.204 133.698 220.831 138.01C218.458 142.323 211.813 144.727 211.813 144.727L208.168 140.624Z" fill="#FFD1AB"/>
<path d="M222.483 131.249C222.483 131.249 219.812 133.658 218.393 134.244" stroke="#18233D" stroke-width="1.3" stroke-linecap="round"/>
<path d="M222.483 133.496C222.483 133.496 219.812 135.904 218.393 136.491" stroke="#18233D" stroke-width="1.3" stroke-linecap="round"/>
<path d="M221.119 137.24C221.119 137.24 219.339 139.046 218.393 139.486" stroke="#18233D" stroke-width="1.3" stroke-linecap="round"/>
</g>
<path fill-rule="evenodd" clip-rule="evenodd" d="M157.463 5.85922C159.755 5.51509 161.328 5.01451 162.182 4.35748C163.036 3.70044 164.002 2.24795 165.081 0C164.809 2.28755 165.117 4.12865 166.006 5.52329C166.895 6.91793 168.365 7.86611 170.415 8.36784C168.088 8.62306 166.49 9.08477 165.621 9.75299C164.753 10.4212 163.811 11.9126 162.797 14.2271C162.71 11.5599 162.362 9.74913 161.753 8.79462C161.145 7.8401 159.715 6.86164 157.463 5.85922Z" fill="#0ACC94"/>
<path fill-rule="evenodd" clip-rule="evenodd" d="M32.0363 188.565C34.328 188.221 35.9011 187.72 36.7553 187.063C37.6095 186.406 38.5757 184.953 39.654 182.705C39.3821 184.993 39.6906 186.834 40.5796 188.229C41.4686 189.623 42.938 190.572 44.9879 191.073C42.6611 191.328 41.0633 191.79 40.1946 192.458C39.3258 193.127 38.3844 194.618 37.3702 196.933C37.2828 194.265 36.9349 192.455 36.3265 191.5C35.718 190.546 34.288 189.567 32.0363 188.565Z" fill="#0ACC94"/>
<path fill-rule="evenodd" clip-rule="evenodd" d="M41.5796 70.2563C45.9219 69.6043 48.9024 68.6558 50.5209 67.4109C52.1394 66.166 53.9702 63.4139 56.0131 59.1546C55.498 63.4889 56.0826 66.9773 57.767 69.6198C59.4514 72.2623 62.2356 74.0588 66.1196 75.0095C61.7109 75.493 58.6835 76.3679 57.0375 77.6339C55.3914 78.9 53.6076 81.7258 51.6861 86.1111C51.5205 81.0577 50.8613 77.6266 49.7084 75.8181C48.5556 74.0095 45.846 72.1556 41.5796 70.2563Z" fill="#0ACC94"/>
<path fill-rule="evenodd" clip-rule="evenodd" d="M266.53 168.348C270.872 167.696 273.852 166.748 275.471 165.503C277.09 164.258 278.92 161.506 280.963 157.246C280.448 161.581 281.033 165.069 282.717 167.712C284.401 170.354 287.186 172.151 291.07 173.101C286.661 173.585 283.634 174.46 281.988 175.726C280.341 176.992 278.558 179.818 276.636 184.203C276.471 179.15 275.811 175.719 274.659 173.91C273.506 172.101 270.796 170.247 266.53 168.348Z" fill="#026753"/>
<defs>
<linearGradient id="paint0_linear_7_4" x1="49.924" y1="99.8469" x2="49.924" y2="161.79" gradientUnits="userSpaceOnUse">
<stop stop-color="#354970"/>
<stop offset="1" stop-color="#18233D"/>
</linearGradient>
<linearGradient id="paint1_linear_7_4" x1="185.673" y1="160.452" x2="185.673" y2="328.931" gradientUnits="userSpaceOnUse">
<stop stop-color="#354970"/>
<stop offset="1" stop-color="#18233D"/>
</linearGradient>
<linearGradient id="paint2_linear_7_4" x1="201.351" y1="165.694" x2="201.351" y2="328.93" gradientUnits="userSpaceOnUse">
<stop stop-color="#354970"/>
<stop offset="1" stop-color="#18233D"/>
</linearGradient>
<linearGradient id="paint3_linear_7_4" x1="196.158" y1="139.238" x2="224.295" y2="142.43" gradientUnits="userSpaceOnUse">
<stop stop-color="#FCEA91"/>
<stop offset="1" stop-color="#FFD757"/>
</linearGradient>
<linearGradient id="paint4_linear_7_4" x1="217.147" y1="115.37" x2="217.278" y2="106.962" gradientUnits="userSpaceOnUse">
<stop stop-color="#FFDD67"/>
<stop offset="1" stop-color="#F5BB37"/>
</linearGradient>
<linearGradient id="paint5_linear_7_4" x1="212.708" y1="142.737" x2="219.029" y2="144.317" gradientUnits="userSpaceOnUse">
<stop stop-color="#FDE175"/>
<stop offset="1" stop-color="#F5BB37"/>
</linearGradient>
<linearGradient id="paint6_linear_7_4" x1="222.798" y1="142.545" x2="224.245" y2="144.923" gradientUnits="userSpaceOnUse">
<stop stop-color="#FA904A"/>
<stop offset="1" stop-color="#DB6742"/>
</linearGradient>
<linearGradient id="paint7_linear_7_4" x1="224.54" y1="145.959" x2="225.815" y2="148.053" gradientUnits="userSpaceOnUse">
<stop stop-color="#FA904A"/>
<stop offset="1" stop-color="#DB6742"/>
</linearGradient>
<linearGradient id="paint8_linear_7_4" x1="227.201" y1="147.691" x2="228.614" y2="150.011" gradientUnits="userSpaceOnUse">
<stop stop-color="#FA904A"/>
<stop offset="1" stop-color="#DB6742"/>
</linearGradient>
<linearGradient id="paint9_linear_7_4" x1="230.26" y1="147.714" x2="231.844" y2="150.315" gradientUnits="userSpaceOnUse">
<stop stop-color="#FA904A"/>
<stop offset="1" stop-color="#DB6742"/>
</linearGradient>
<linearGradient id="paint10_linear_7_4" x1="233.022" y1="147.621" x2="234.048" y2="149.306" gradientUnits="userSpaceOnUse">
<stop stop-color="#FA904A"/>
<stop offset="1" stop-color="#DB6742"/>
</linearGradient>
<linearGradient id="paint11_linear_7_4" x1="-0.831081" y1="12.5471" x2="11.4713" y2="13.9555" gradientUnits="userSpaceOnUse">
<stop stop-color="#FCEA91"/>
<stop offset="1" stop-color="#FFD757"/>
</linearGradient>
<linearGradient id="paint12_linear_7_4" x1="229.233" y1="138.228" x2="232.55" y2="143.676" gradientUnits="userSpaceOnUse">
<stop stop-color="white"/>
<stop offset="1" stop-color="#FCE5C2"/>
</linearGradient>
<linearGradient id="paint13_linear_7_4" x1="49.924" y1="99.8469" x2="49.924" y2="161.79" gradientUnits="userSpaceOnUse">
<stop stop-color="#354970"/>
<stop offset="1" stop-color="#18233D"/>
</linearGradient>
<linearGradient id="paint14_linear_7_4" x1="185.673" y1="160.452" x2="185.673" y2="328.931" gradientUnits="userSpaceOnUse">
<stop stop-color="#354970"/>
<stop offset="1" stop-color="#18233D"/>
</linearGradient>
<linearGradient id="paint15_linear_7_4" x1="201.351" y1="165.694" x2="201.351" y2="328.93" gradientUnits="userSpaceOnUse">
<stop stop-color="#354970"/>
<stop offset="1" stop-color="#18233D"/>
</linearGradient>
<linearGradient id="paint16_linear_7_4" x1="196.158" y1="139.238" x2="224.295" y2="142.43" gradientUnits="userSpaceOnUse">
<stop stop-color="#FCEA91"/>
<stop offset="1" stop-color="#FFD757"/>
</linearGradient>
<linearGradient id="paint17_linear_7_4" x1="217.147" y1="115.37" x2="217.278" y2="106.962" gradientUnits="userSpaceOnUse">
<stop stop-color="#FFDD67"/>
<stop offset="1" stop-color="#F5BB37"/>
</linearGradient>
<linearGradient id="paint18_linear_7_4" x1="212.708" y1="142.737" x2="219.029" y2="144.317" gradientUnits="userSpaceOnUse">
<stop stop-color="#FDE175"/>
<stop offset="1" stop-color="#F5BB37"/>
</linearGradient>
<linearGradient id="paint19_linear_7_4" x1="222.798" y1="142.545" x2="224.245" y2="144.923" gradientUnits="userSpaceOnUse">
<stop stop-color="#FA904A"/>
<stop offset="1" stop-color="#DB6742"/>
</linearGradient>
<linearGradient id="paint20_linear_7_4" x1="224.54" y1="145.959" x2="225.815" y2="148.053" gradientUnits="userSpaceOnUse">
<stop stop-color="#FA904A"/>
<stop offset="1" stop-color="#DB6742"/>
</linearGradient>
<linearGradient id="paint21_linear_7_4" x1="227.201" y1="147.691" x2="228.614" y2="150.011" gradientUnits="userSpaceOnUse">
<stop stop-color="#FA904A"/>
<stop offset="1" stop-color="#DB6742"/>
</linearGradient>
<linearGradient id="paint22_linear_7_4" x1="230.26" y1="147.714" x2="231.844" y2="150.315" gradientUnits="userSpaceOnUse">
<stop stop-color="#FA904A"/>
<stop offset="1" stop-color="#DB6742"/>
</linearGradient>
<linearGradient id="paint23_linear_7_4" x1="233.022" y1="147.621" x2="234.048" y2="149.306" gradientUnits="userSpaceOnUse">
<stop stop-color="#FA904A"/>
<stop offset="1" stop-color="#DB6742"/>
</linearGradient>
<linearGradient id="paint24_linear_7_4" x1="-0.831081" y1="12.5471" x2="11.4713" y2="13.9555" gradientUnits="userSpaceOnUse">
<stop stop-color="#FCEA91"/>
<stop offset="1" stop-color="#FFD757"/>
</linearGradient>
<linearGradient id="paint25_linear_7_4" x1="229.233" y1="138.228" x2="232.55" y2="143.676" gradientUnits="userSpaceOnUse">
<stop stop-color="white"/>
<stop offset="1" stop-color="#FCE5C2"/>
</linearGradient>
</defs>
</svg>
